solid CATIA STL
  facet normal  -0.000000e+00  0.000000e+00  1.000000e+00
    outer loop
      vertex  2.975000e+01  7.060000e+01  3.600000e+01
      vertex  1.630678e+01  7.060000e+01  3.600000e+01
      vertex  1.663699e+01  7.043163e+01  3.600000e+01
    endloop
  endfacet
  facet normal  -0.000000e+00  0.000000e+00  1.000000e+00
    outer loop
      vertex  2.975000e+01  7.060000e+01  3.600000e+01
      vertex  1.663699e+01  7.043163e+01  3.600000e+01
      vertex  1.691960e+01  7.019181e+01  3.600000e+01
    endloop
  endfacet
  facet normal  -0.000000e+00  0.000000e+00  1.000000e+00
    outer loop
      vertex  2.975000e+01  7.060000e+01  3.600000e+01
      vertex  1.691960e+01  7.019181e+01  3.600000e+01
      vertex  1.713944e+01  6.989339e+01  3.600000e+01
    endloop
  endfacet
  facet normal  -0.000000e+00  0.000000e+00  1.000000e+00
    outer loop
      vertex  2.975000e+01  7.060000e+01  3.600000e+01
      vertex  1.713944e+01  6.989339e+01  3.600000e+01
      vertex  1.728471e+01  6.955238e+01  3.600000e+01
    endloop
  endfacet
  facet normal  -0.000000e+00  0.000000e+00  1.000000e+00
    outer loop
      vertex  2.975000e+01  7.060000e+01  3.600000e+01
      vertex  1.728471e+01  6.955238e+01  3.600000e+01
      vertex  1.734763e+01  6.918711e+01  3.600000e+01
    endloop
  endfacet
  facet normal  -0.000000e+00  0.000000e+00  1.000000e+00
    outer loop
      vertex  2.975000e+01  7.060000e+01  3.600000e+01
      vertex  1.734763e+01  6.918711e+01  3.600000e+01
      vertex  1.575000e+01  3.100000e+00  3.600000e+01
    endloop
  endfacet
  facet normal  -0.000000e+00  0.000000e+00  1.000000e+00
    outer loop
      vertex  2.975000e+01  7.060000e+01  3.600000e+01
      vertex  1.575000e+01  3.100000e+00  3.600000e+01
      vertex  1.611816e+01  3.057067e+00  3.600000e+01
    endloop
  endfacet
  facet normal  -0.000000e+00  0.000000e+00  9.999999e-01
    outer loop
      vertex  2.975000e+01  7.060000e+01  3.600000e+01
      vertex  1.611816e+01  3.057067e+00  3.600000e+01
      vertex  2.975000e+01  0.000000e+00  3.600000e+01
    endloop
  endfacet
  facet normal  0.000000e+00  0.000000e+00  1.000000e+00
    outer loop
      vertex  1.575000e+01  3.100000e+00  3.600000e+01
      vertex  1.734763e+01  6.918711e+01  3.600000e+01
      vertex  1.732480e+01  6.881715e+01  3.600000e+01
    endloop
  endfacet
  facet normal  0.000000e+00  0.000000e+00  9.999999e-01
    outer loop
      vertex  1.575000e+01  3.100000e+00  3.600000e+01
      vertex  1.732480e+01  6.881715e+01  3.600000e+01
      vertex  1.721746e+01  6.846239e+01  3.600000e+01
    endloop
  endfacet
  facet normal  0.000000e+00  0.000000e+00  1.000000e+00
    outer loop
      vertex  1.575000e+01  3.100000e+00  3.600000e+01
      vertex  1.721746e+01  6.846239e+01  3.600000e+01
      vertex  1.703137e+01  6.814183e+01  3.600000e+01
    endloop
  endfacet
  facet normal  0.000000e+00  0.000000e+00  1.000000e+00
    outer loop
      vertex  1.575000e+01  3.100000e+00  3.600000e+01
      vertex  1.703137e+01  6.814183e+01  3.600000e+01
      vertex  1.677651e+01  6.787270e+01  3.600000e+01
    endloop
  endfacet
  facet normal  0.000000e+00  0.000000e+00  1.000000e+00
    outer loop
      vertex  1.575000e+01  3.100000e+00  3.600000e+01
      vertex  1.677651e+01  6.787270e+01  3.600000e+01
      vertex  1.646656e+01  6.766943e+01  3.600000e+01
    endloop
  endfacet
  facet normal  0.000000e+00  0.000000e+00  1.000000e+00
    outer loop
      vertex  1.575000e+01  3.100000e+00  3.600000e+01
      vertex  1.646656e+01  6.766943e+01  3.600000e+01
      vertex  1.611816e+01  6.754293e+01  3.600000e+01
    endloop
  endfacet
  facet normal  0.000000e+00  0.000000e+00  1.000000e+00
    outer loop
      vertex  1.575000e+01  3.100000e+00  3.600000e+01
      vertex  1.611816e+01  6.754293e+01  3.600000e+01
      vertex  1.575000e+01  6.750000e+01  3.600000e+01
    endloop
  endfacet
  facet normal  0.000000e+00  0.000000e+00  9.999999e-01
    outer loop
      vertex  1.575000e+01  3.100000e+00  3.600000e+01
      vertex  1.575000e+01  6.750000e+01  3.600000e+01
      vertex  1.538184e+01  3.057067e+00  3.600000e+01
    endloop
  endfacet
  facet normal  0.000000e+00  0.000000e+00  1.000000e+00
    outer loop
      vertex  0.000000e+00  0.000000e+00  3.600000e+01
      vertex  1.519322e+01  2.220446e-16  3.600000e+01
      vertex  1.486301e+01  1.683642e-01  3.600000e+01
    endloop
  endfacet
  facet normal  0.000000e+00  0.000000e+00  1.000000e+00
    outer loop
      vertex  0.000000e+00  0.000000e+00  3.600000e+01
      vertex  1.486301e+01  1.683642e-01  3.600000e+01
      vertex  1.458040e+01  4.081924e-01  3.600000e+01
    endloop
  endfacet
  facet normal  0.000000e+00  0.000000e+00  1.000000e+00
    outer loop
      vertex  0.000000e+00  0.000000e+00  3.600000e+01
      vertex  1.458040e+01  4.081924e-01  3.600000e+01
      vertex  1.436056e+01  7.066137e-01  3.600000e+01
    endloop
  endfacet
  facet normal  0.000000e+00  0.000000e+00  1.000000e+00
    outer loop
      vertex  0.000000e+00  0.000000e+00  3.600000e+01
      vertex  1.436056e+01  7.066137e-01  3.600000e+01
      vertex  1.421529e+01  1.047613e+00  3.600000e+01
    endloop
  endfacet
  facet normal  0.000000e+00  0.000000e+00  1.000000e+00
    outer loop
      vertex  0.000000e+00  0.000000e+00  3.600000e+01
      vertex  1.421529e+01  1.047613e+00  3.600000e+01
      vertex  1.415237e+01  1.412891e+00  3.600000e+01
    endloop
  endfacet
  facet normal  0.000000e+00  -0.000000e+00  1.000000e+00
    outer loop
      vertex  0.000000e+00  0.000000e+00  3.600000e+01
      vertex  1.415237e+01  1.412891e+00  3.600000e+01
      vertex  1.417520e+01  1.782843e+00  3.600000e+01
    endloop
  endfacet
  facet normal  0.000000e+00  -0.000000e+00  1.000000e+00
    outer loop
      vertex  0.000000e+00  0.000000e+00  3.600000e+01
      vertex  1.417520e+01  1.782843e+00  3.600000e+01
      vertex  1.428254e+01  2.137616e+00  3.600000e+01
    endloop
  endfacet
  facet normal  0.000000e+00  -0.000000e+00  1.000000e+00
    outer loop
      vertex  0.000000e+00  0.000000e+00  3.600000e+01
      vertex  1.428254e+01  2.137616e+00  3.600000e+01
      vertex  1.446863e+01  2.458170e+00  3.600000e+01
    endloop
  endfacet
  facet normal  0.000000e+00  -0.000000e+00  1.000000e+00
    outer loop
      vertex  0.000000e+00  0.000000e+00  3.600000e+01
      vertex  1.446863e+01  2.458170e+00  3.600000e+01
      vertex  1.472349e+01  2.727304e+00  3.600000e+01
    endloop
  endfacet
  facet normal  0.000000e+00  -0.000000e+00  1.000000e+00
    outer loop
      vertex  0.000000e+00  0.000000e+00  3.600000e+01
      vertex  1.472349e+01  2.727304e+00  3.600000e+01
      vertex  1.503344e+01  2.930572e+00  3.600000e+01
    endloop
  endfacet
  facet normal  0.000000e+00  -0.000000e+00  1.000000e+00
    outer loop
      vertex  0.000000e+00  0.000000e+00  3.600000e+01
      vertex  1.503344e+01  2.930572e+00  3.600000e+01
      vertex  1.538184e+01  3.057067e+00  3.600000e+01
    endloop
  endfacet
  facet normal  0.000000e+00  -0.000000e+00  1.000000e+00
    outer loop
      vertex  0.000000e+00  0.000000e+00  3.600000e+01
      vertex  1.538184e+01  3.057067e+00  3.600000e+01
      vertex  1.575000e+01  6.750000e+01  3.600000e+01
    endloop
  endfacet
  facet normal  0.000000e+00  0.000000e+00  9.999999e-01
    outer loop
      vertex  0.000000e+00  0.000000e+00  3.600000e+01
      vertex  1.575000e+01  6.750000e+01  3.600000e+01
      vertex  1.538184e+01  6.754293e+01  3.600000e+01
    endloop
  endfacet
  facet normal  0.000000e+00  0.000000e+00  1.000000e+00
    outer loop
      vertex  0.000000e+00  0.000000e+00  3.600000e+01
      vertex  1.538184e+01  6.754293e+01  3.600000e+01
      vertex  1.503344e+01  6.766943e+01  3.600000e+01
    endloop
  endfacet
  facet normal  0.000000e+00  0.000000e+00  1.000000e+00
    outer loop
      vertex  0.000000e+00  0.000000e+00  3.600000e+01
      vertex  1.503344e+01  6.766943e+01  3.600000e+01
      vertex  1.472349e+01  6.787270e+01  3.600000e+01
    endloop
  endfacet
  facet normal  0.000000e+00  0.000000e+00  1.000000e+00
    outer loop
      vertex  0.000000e+00  0.000000e+00  3.600000e+01
      vertex  1.472349e+01  6.787270e+01  3.600000e+01
      vertex  1.446863e+01  6.814183e+01  3.600000e+01
    endloop
  endfacet
  facet normal  0.000000e+00  0.000000e+00  1.000000e+00
    outer loop
      vertex  0.000000e+00  0.000000e+00  3.600000e+01
      vertex  1.446863e+01  6.814183e+01  3.600000e+01
      vertex  1.428254e+01  6.846239e+01  3.600000e+01
    endloop
  endfacet
  facet normal  0.000000e+00  0.000000e+00  1.000000e+00
    outer loop
      vertex  0.000000e+00  0.000000e+00  3.600000e+01
      vertex  1.428254e+01  6.846239e+01  3.600000e+01
      vertex  1.417520e+01  6.881715e+01  3.600000e+01
    endloop
  endfacet
  facet normal  0.000000e+00  0.000000e+00  1.000000e+00
    outer loop
      vertex  0.000000e+00  0.000000e+00  3.600000e+01
      vertex  1.417520e+01  6.881715e+01  3.600000e+01
      vertex  1.415237e+01  6.918711e+01  3.600000e+01
    endloop
  endfacet
  facet normal  0.000000e+00  -0.000000e+00  1.000000e+00
    outer loop
      vertex  0.000000e+00  0.000000e+00  3.600000e+01
      vertex  1.415237e+01  6.918711e+01  3.600000e+01
      vertex  1.421529e+01  6.955238e+01  3.600000e+01
    endloop
  endfacet
  facet normal  0.000000e+00  0.000000e+00  1.000000e+00
    outer loop
      vertex  0.000000e+00  7.060000e+01  3.600000e+01
      vertex  0.000000e+00  0.000000e+00  3.600000e+01
      vertex  1.421529e+01  6.955238e+01  3.600000e+01
    endloop
  endfacet
  facet normal  0.000000e+00  -0.000000e+00  1.000000e+00
    outer loop
      vertex  0.000000e+00  7.060000e+01  3.600000e+01
      vertex  1.421529e+01  6.955238e+01  3.600000e+01
      vertex  1.436056e+01  6.989339e+01  3.600000e+01
    endloop
  endfacet
  facet normal  0.000000e+00  -0.000000e+00  1.000000e+00
    outer loop
      vertex  0.000000e+00  7.060000e+01  3.600000e+01
      vertex  1.436056e+01  6.989339e+01  3.600000e+01
      vertex  1.458040e+01  7.019181e+01  3.600000e+01
    endloop
  endfacet
  facet normal  0.000000e+00  -0.000000e+00  9.999999e-01
    outer loop
      vertex  0.000000e+00  7.060000e+01  3.600000e+01
      vertex  1.458040e+01  7.019181e+01  3.600000e+01
      vertex  1.486301e+01  7.043163e+01  3.600000e+01
    endloop
  endfacet
  facet normal  0.000000e+00  -0.000000e+00  1.000000e+00
    outer loop
      vertex  0.000000e+00  7.060000e+01  3.600000e+01
      vertex  1.486301e+01  7.043163e+01  3.600000e+01
      vertex  1.519322e+01  7.060000e+01  3.600000e+01
    endloop
  endfacet
  facet normal  0.000000e+00  0.000000e+00  9.999999e-01
    outer loop
      vertex  2.975000e+01  0.000000e+00  3.600000e+01
      vertex  1.611816e+01  3.057067e+00  3.600000e+01
      vertex  1.646656e+01  2.930572e+00  3.600000e+01
    endloop
  endfacet
  facet normal  0.000000e+00  0.000000e+00  1.000000e+00
    outer loop
      vertex  2.975000e+01  0.000000e+00  3.600000e+01
      vertex  1.646656e+01  2.930572e+00  3.600000e+01
      vertex  1.677651e+01  2.727304e+00  3.600000e+01
    endloop
  endfacet
  facet normal  0.000000e+00  0.000000e+00  1.000000e+00
    outer loop
      vertex  2.975000e+01  0.000000e+00  3.600000e+01
      vertex  1.677651e+01  2.727304e+00  3.600000e+01
      vertex  1.703137e+01  2.458170e+00  3.600000e+01
    endloop
  endfacet
  facet normal  0.000000e+00  0.000000e+00  1.000000e+00
    outer loop
      vertex  2.975000e+01  0.000000e+00  3.600000e+01
      vertex  1.703137e+01  2.458170e+00  3.600000e+01
      vertex  1.721746e+01  2.137616e+00  3.600000e+01
    endloop
  endfacet
  facet normal  0.000000e+00  0.000000e+00  1.000000e+00
    outer loop
      vertex  2.975000e+01  0.000000e+00  3.600000e+01
      vertex  1.721746e+01  2.137616e+00  3.600000e+01
      vertex  1.732480e+01  1.782843e+00  3.600000e+01
    endloop
  endfacet
  facet normal  0.000000e+00  0.000000e+00  1.000000e+00
    outer loop
      vertex  2.975000e+01  0.000000e+00  3.600000e+01
      vertex  1.732480e+01  1.782843e+00  3.600000e+01
      vertex  1.734763e+01  1.412891e+00  3.600000e+01
    endloop
  endfacet
  facet normal  0.000000e+00  0.000000e+00  1.000000e+00
    outer loop
      vertex  2.975000e+01  0.000000e+00  3.600000e+01
      vertex  1.734763e+01  1.412891e+00  3.600000e+01
      vertex  1.728471e+01  1.047613e+00  3.600000e+01
    endloop
  endfacet
  facet normal  0.000000e+00  0.000000e+00  1.000000e+00
    outer loop
      vertex  2.975000e+01  0.000000e+00  3.600000e+01
      vertex  1.728471e+01  1.047613e+00  3.600000e+01
      vertex  1.713944e+01  7.066137e-01  3.600000e+01
    endloop
  endfacet
  facet normal  0.000000e+00  0.000000e+00  1.000000e+00
    outer loop
      vertex  2.975000e+01  0.000000e+00  3.600000e+01
      vertex  1.713944e+01  7.066137e-01  3.600000e+01
      vertex  1.691960e+01  4.081924e-01  3.600000e+01
    endloop
  endfacet
  facet normal  0.000000e+00  0.000000e+00  9.999999e-01
    outer loop
      vertex  2.975000e+01  0.000000e+00  3.600000e+01
      vertex  1.691960e+01  4.081924e-01  3.600000e+01
      vertex  1.663699e+01  1.683642e-01  3.600000e+01
    endloop
  endfacet
  facet normal  0.000000e+00  0.000000e+00  1.000000e+00
    outer loop
      vertex  2.975000e+01  0.000000e+00  3.600000e+01
      vertex  1.663699e+01  1.683642e-01  3.600000e+01
      vertex  1.630678e+01  0.000000e+00  3.600000e+01
    endloop
  endfacet
  facet normal  0.000000e+00  0.000000e+00 -1.000000e+00
    outer loop
      vertex  2.975000e+01  7.060000e+01  3.500000e+01
      vertex  2.975000e+01  0.000000e+00  3.500000e+01
      vertex  1.611816e+01  3.057067e+00  3.500000e+01
    endloop
  endfacet
  facet normal  0.000000e+00  0.000000e+00 -1.000000e+00
    outer loop
      vertex  2.975000e+01  7.060000e+01  3.500000e+01
      vertex  1.611816e+01  3.057067e+00  3.500000e+01
      vertex  1.575000e+01  3.100000e+00  3.500000e+01
    endloop
  endfacet
  facet normal  0.000000e+00  0.000000e+00 -1.000000e+00
    outer loop
      vertex  2.975000e+01  7.060000e+01  3.500000e+01
      vertex  1.575000e+01  3.100000e+00  3.500000e+01
      vertex  1.734763e+01  6.918711e+01  3.500000e+01
    endloop
  endfacet
  facet normal  0.000000e+00  0.000000e+00 -1.000000e+00
    outer loop
      vertex  2.975000e+01  7.060000e+01  3.500000e+01
      vertex  1.734763e+01  6.918711e+01  3.500000e+01
      vertex  1.728471e+01  6.955238e+01  3.500000e+01
    endloop
  endfacet
  facet normal  0.000000e+00  0.000000e+00 -1.000000e+00
    outer loop
      vertex  2.975000e+01  7.060000e+01  3.500000e+01
      vertex  1.728471e+01  6.955238e+01  3.500000e+01
      vertex  1.713944e+01  6.989339e+01  3.500000e+01
    endloop
  endfacet
  facet normal  0.000000e+00  0.000000e+00 -1.000000e+00
    outer loop
      vertex  2.975000e+01  7.060000e+01  3.500000e+01
      vertex  1.713944e+01  6.989339e+01  3.500000e+01
      vertex  1.691960e+01  7.019181e+01  3.500000e+01
    endloop
  endfacet
  facet normal  0.000000e+00  0.000000e+00 -1.000000e+00
    outer loop
      vertex  2.975000e+01  7.060000e+01  3.500000e+01
      vertex  1.691960e+01  7.019181e+01  3.500000e+01
      vertex  1.663699e+01  7.043163e+01  3.500000e+01
    endloop
  endfacet
  facet normal  0.000000e+00  0.000000e+00 -9.999999e-01
    outer loop
      vertex  2.975000e+01  7.060000e+01  3.500000e+01
      vertex  1.663699e+01  7.043163e+01  3.500000e+01
      vertex  1.630678e+01  7.060000e+01  3.500000e+01
    endloop
  endfacet
  facet normal  0.000000e+00  0.000000e+00 -9.999999e-01
    outer loop
      vertex  1.575000e+01  3.100000e+00  3.500000e+01
      vertex  1.538184e+01  3.057067e+00  3.500000e+01
      vertex  1.575000e+01  6.750000e+01  3.500000e+01
    endloop
  endfacet
  facet normal  0.000000e+00  0.000000e+00 -1.000000e+00
    outer loop
      vertex  1.575000e+01  3.100000e+00  3.500000e+01
      vertex  1.575000e+01  6.750000e+01  3.500000e+01
      vertex  1.611816e+01  6.754293e+01  3.500000e+01
    endloop
  endfacet
  facet normal  0.000000e+00  -0.000000e+00 -1.000000e+00
    outer loop
      vertex  1.575000e+01  3.100000e+00  3.500000e+01
      vertex  1.611816e+01  6.754293e+01  3.500000e+01
      vertex  1.646656e+01  6.766943e+01  3.500000e+01
    endloop
  endfacet
  facet normal  0.000000e+00  -0.000000e+00 -1.000000e+00
    outer loop
      vertex  1.575000e+01  3.100000e+00  3.500000e+01
      vertex  1.646656e+01  6.766943e+01  3.500000e+01
      vertex  1.677651e+01  6.787270e+01  3.500000e+01
    endloop
  endfacet
  facet normal  0.000000e+00  -0.000000e+00 -1.000000e+00
    outer loop
      vertex  1.575000e+01  3.100000e+00  3.500000e+01
      vertex  1.677651e+01  6.787270e+01  3.500000e+01
      vertex  1.703137e+01  6.814183e+01  3.500000e+01
    endloop
  endfacet
  facet normal  0.000000e+00  -0.000000e+00 -1.000000e+00
    outer loop
      vertex  1.575000e+01  3.100000e+00  3.500000e+01
      vertex  1.703137e+01  6.814183e+01  3.500000e+01
      vertex  1.721746e+01  6.846239e+01  3.500000e+01
    endloop
  endfacet
  facet normal  0.000000e+00  -0.000000e+00 -1.000000e+00
    outer loop
      vertex  1.575000e+01  3.100000e+00  3.500000e+01
      vertex  1.721746e+01  6.846239e+01  3.500000e+01
      vertex  1.732480e+01  6.881715e+01  3.500000e+01
    endloop
  endfacet
  facet normal  0.000000e+00  -0.000000e+00 -1.000000e+00
    outer loop
      vertex  1.575000e+01  3.100000e+00  3.500000e+01
      vertex  1.732480e+01  6.881715e+01  3.500000e+01
      vertex  1.734763e+01  6.918711e+01  3.500000e+01
    endloop
  endfacet
  facet normal  0.000000e+00  0.000000e+00 -1.000000e+00
    outer loop
      vertex  0.000000e+00  0.000000e+00  3.500000e+01
      vertex  1.421529e+01  6.955238e+01  3.500000e+01
      vertex  1.415237e+01  6.918711e+01  3.500000e+01
    endloop
  endfacet
  facet normal  0.000000e+00  -0.000000e+00 -1.000000e+00
    outer loop
      vertex  0.000000e+00  0.000000e+00  3.500000e+01
      vertex  1.415237e+01  6.918711e+01  3.500000e+01
      vertex  1.417520e+01  6.881715e+01  3.500000e+01
    endloop
  endfacet
  facet normal  0.000000e+00  -0.000000e+00 -1.000000e+00
    outer loop
      vertex  0.000000e+00  0.000000e+00  3.500000e+01
      vertex  1.417520e+01  6.881715e+01  3.500000e+01
      vertex  1.428254e+01  6.846239e+01  3.500000e+01
    endloop
  endfacet
  facet normal  0.000000e+00  -0.000000e+00 -1.000000e+00
    outer loop
      vertex  0.000000e+00  0.000000e+00  3.500000e+01
      vertex  1.428254e+01  6.846239e+01  3.500000e+01
      vertex  1.446863e+01  6.814183e+01  3.500000e+01
    endloop
  endfacet
  facet normal  0.000000e+00  -0.000000e+00 -1.000000e+00
    outer loop
      vertex  0.000000e+00  0.000000e+00  3.500000e+01
      vertex  1.446863e+01  6.814183e+01  3.500000e+01
      vertex  1.472349e+01  6.787270e+01  3.500000e+01
    endloop
  endfacet
  facet normal  0.000000e+00  -0.000000e+00 -1.000000e+00
    outer loop
      vertex  0.000000e+00  0.000000e+00  3.500000e+01
      vertex  1.472349e+01  6.787270e+01  3.500000e+01
      vertex  1.503344e+01  6.766943e+01  3.500000e+01
    endloop
  endfacet
  facet normal  0.000000e+00  -0.000000e+00 -1.000000e+00
    outer loop
      vertex  0.000000e+00  0.000000e+00  3.500000e+01
      vertex  1.503344e+01  6.766943e+01  3.500000e+01
      vertex  1.538184e+01  6.754293e+01  3.500000e+01
    endloop
  endfacet
  facet normal  0.000000e+00  -0.000000e+00 -1.000000e+00
    outer loop
      vertex  0.000000e+00  0.000000e+00  3.500000e+01
      vertex  1.538184e+01  6.754293e+01  3.500000e+01
      vertex  1.575000e+01  6.750000e+01  3.500000e+01
    endloop
  endfacet
  facet normal  0.000000e+00  0.000000e+00 -1.000000e+00
    outer loop
      vertex  0.000000e+00  0.000000e+00  3.500000e+01
      vertex  1.575000e+01  6.750000e+01  3.500000e+01
      vertex  1.538184e+01  3.057067e+00  3.500000e+01
    endloop
  endfacet
  facet normal  0.000000e+00  0.000000e+00 -1.000000e+00
    outer loop
      vertex  0.000000e+00  0.000000e+00  3.500000e+01
      vertex  1.538184e+01  3.057067e+00  3.500000e+01
      vertex  1.503344e+01  2.930572e+00  3.500000e+01
    endloop
  endfacet
  facet normal  0.000000e+00  0.000000e+00 -1.000000e+00
    outer loop
      vertex  0.000000e+00  0.000000e+00  3.500000e+01
      vertex  1.503344e+01  2.930572e+00  3.500000e+01
      vertex  1.472349e+01  2.727304e+00  3.500000e+01
    endloop
  endfacet
  facet normal  0.000000e+00  0.000000e+00 -1.000000e+00
    outer loop
      vertex  0.000000e+00  0.000000e+00  3.500000e+01
      vertex  1.472349e+01  2.727304e+00  3.500000e+01
      vertex  1.446863e+01  2.458170e+00  3.500000e+01
    endloop
  endfacet
  facet normal  0.000000e+00  0.000000e+00 -1.000000e+00
    outer loop
      vertex  0.000000e+00  0.000000e+00  3.500000e+01
      vertex  1.446863e+01  2.458170e+00  3.500000e+01
      vertex  1.428254e+01  2.137616e+00  3.500000e+01
    endloop
  endfacet
  facet normal  0.000000e+00  0.000000e+00 -1.000000e+00
    outer loop
      vertex  0.000000e+00  0.000000e+00  3.500000e+01
      vertex  1.428254e+01  2.137616e+00  3.500000e+01
      vertex  1.417520e+01  1.782843e+00  3.500000e+01
    endloop
  endfacet
  facet normal  0.000000e+00  0.000000e+00 -1.000000e+00
    outer loop
      vertex  0.000000e+00  0.000000e+00  3.500000e+01
      vertex  1.417520e+01  1.782843e+00  3.500000e+01
      vertex  1.415237e+01  1.412891e+00  3.500000e+01
    endloop
  endfacet
  facet normal  0.000000e+00  -0.000000e+00 -1.000000e+00
    outer loop
      vertex  0.000000e+00  0.000000e+00  3.500000e+01
      vertex  1.415237e+01  1.412891e+00  3.500000e+01
      vertex  1.421529e+01  1.047613e+00  3.500000e+01
    endloop
  endfacet
  facet normal  0.000000e+00  -0.000000e+00 -1.000000e+00
    outer loop
      vertex  0.000000e+00  0.000000e+00  3.500000e+01
      vertex  1.421529e+01  1.047613e+00  3.500000e+01
      vertex  1.436056e+01  7.066137e-01  3.500000e+01
    endloop
  endfacet
  facet normal  0.000000e+00  -0.000000e+00 -1.000000e+00
    outer loop
      vertex  0.000000e+00  0.000000e+00  3.500000e+01
      vertex  1.436056e+01  7.066137e-01  3.500000e+01
      vertex  1.458040e+01  4.081924e-01  3.500000e+01
    endloop
  endfacet
  facet normal  0.000000e+00  -0.000000e+00 -1.000000e+00
    outer loop
      vertex  0.000000e+00  0.000000e+00  3.500000e+01
      vertex  1.458040e+01  4.081924e-01  3.500000e+01
      vertex  1.486301e+01  1.683642e-01  3.500000e+01
    endloop
  endfacet
  facet normal  0.000000e+00  -0.000000e+00 -1.000000e+00
    outer loop
      vertex  0.000000e+00  0.000000e+00  3.500000e+01
      vertex  1.486301e+01  1.683642e-01  3.500000e+01
      vertex  1.519322e+01  2.220446e-16  3.500000e+01
    endloop
  endfacet
  facet normal  -0.000000e+00  0.000000e+00 -1.000000e+00
    outer loop
      vertex  0.000000e+00  7.060000e+01  3.500000e+01
      vertex  1.519322e+01  7.060000e+01  3.500000e+01
      vertex  1.486301e+01  7.043163e+01  3.500000e+01
    endloop
  endfacet
  facet normal  -0.000000e+00  0.000000e+00 -9.999999e-01
    outer loop
      vertex  0.000000e+00  7.060000e+01  3.500000e+01
      vertex  1.486301e+01  7.043163e+01  3.500000e+01
      vertex  1.458040e+01  7.019181e+01  3.500000e+01
    endloop
  endfacet
  facet normal  -0.000000e+00  0.000000e+00 -1.000000e+00
    outer loop
      vertex  0.000000e+00  7.060000e+01  3.500000e+01
      vertex  1.458040e+01  7.019181e+01  3.500000e+01
      vertex  1.436056e+01  6.989339e+01  3.500000e+01
    endloop
  endfacet
  facet normal  -0.000000e+00  0.000000e+00 -1.000000e+00
    outer loop
      vertex  0.000000e+00  7.060000e+01  3.500000e+01
      vertex  1.436056e+01  6.989339e+01  3.500000e+01
      vertex  1.421529e+01  6.955238e+01  3.500000e+01
    endloop
  endfacet
  facet normal  -0.000000e+00  0.000000e+00 -1.000000e+00
    outer loop
      vertex  0.000000e+00  7.060000e+01  3.500000e+01
      vertex  1.421529e+01  6.955238e+01  3.500000e+01
      vertex  0.000000e+00  0.000000e+00  3.500000e+01
    endloop
  endfacet
  facet normal  0.000000e+00  0.000000e+00 -1.000000e+00
    outer loop
      vertex  2.975000e+01  0.000000e+00  3.500000e+01
      vertex  1.630678e+01  0.000000e+00  3.500000e+01
      vertex  1.663699e+01  1.683642e-01  3.500000e+01
    endloop
  endfacet
  facet normal  0.000000e+00  0.000000e+00 -1.000000e+00
    outer loop
      vertex  2.975000e+01  0.000000e+00  3.500000e+01
      vertex  1.663699e+01  1.683642e-01  3.500000e+01
      vertex  1.691960e+01  4.081924e-01  3.500000e+01
    endloop
  endfacet
  facet normal  0.000000e+00  0.000000e+00 -1.000000e+00
    outer loop
      vertex  2.975000e+01  0.000000e+00  3.500000e+01
      vertex  1.691960e+01  4.081924e-01  3.500000e+01
      vertex  1.713944e+01  7.066137e-01  3.500000e+01
    endloop
  endfacet
  facet normal  0.000000e+00  0.000000e+00 -1.000000e+00
    outer loop
      vertex  2.975000e+01  0.000000e+00  3.500000e+01
      vertex  1.713944e+01  7.066137e-01  3.500000e+01
      vertex  1.728471e+01  1.047613e+00  3.500000e+01
    endloop
  endfacet
  facet normal  0.000000e+00  0.000000e+00 -1.000000e+00
    outer loop
      vertex  2.975000e+01  0.000000e+00  3.500000e+01
      vertex  1.728471e+01  1.047613e+00  3.500000e+01
      vertex  1.734763e+01  1.412891e+00  3.500000e+01
    endloop
  endfacet
  facet normal  0.000000e+00  0.000000e+00 -1.000000e+00
    outer loop
      vertex  2.975000e+01  0.000000e+00  3.500000e+01
      vertex  1.734763e+01  1.412891e+00  3.500000e+01
      vertex  1.732480e+01  1.782843e+00  3.500000e+01
    endloop
  endfacet
  facet normal  0.000000e+00  0.000000e+00 -1.000000e+00
    outer loop
      vertex  2.975000e+01  0.000000e+00  3.500000e+01
      vertex  1.732480e+01  1.782843e+00  3.500000e+01
      vertex  1.721746e+01  2.137616e+00  3.500000e+01
    endloop
  endfacet
  facet normal  0.000000e+00  0.000000e+00 -1.000000e+00
    outer loop
      vertex  2.975000e+01  0.000000e+00  3.500000e+01
      vertex  1.721746e+01  2.137616e+00  3.500000e+01
      vertex  1.703137e+01  2.458170e+00  3.500000e+01
    endloop
  endfacet
  facet normal  0.000000e+00  0.000000e+00 -1.000000e+00
    outer loop
      vertex  2.975000e+01  0.000000e+00  3.500000e+01
      vertex  1.703137e+01  2.458170e+00  3.500000e+01
      vertex  1.677651e+01  2.727304e+00  3.500000e+01
    endloop
  endfacet
  facet normal  0.000000e+00  0.000000e+00 -1.000000e+00
    outer loop
      vertex  2.975000e+01  0.000000e+00  3.500000e+01
      vertex  1.677651e+01  2.727304e+00  3.500000e+01
      vertex  1.646656e+01  2.930572e+00  3.500000e+01
    endloop
  endfacet
  facet normal  0.000000e+00  0.000000e+00 -9.999999e-01
    outer loop
      vertex  2.975000e+01  0.000000e+00  3.500000e+01
      vertex  1.646656e+01  2.930572e+00  3.500000e+01
      vertex  1.611816e+01  3.057067e+00  3.500000e+01
    endloop
  endfacet
  facet normal  0.000000e+00  1.000000e+00  0.000000e+00
    outer loop
      vertex  0.000000e+00  7.060000e+01  3.600000e+01
      vertex  1.519322e+01  7.060000e+01  3.600000e+01
      vertex  0.000000e+00  7.060000e+01  3.500000e+01
    endloop
  endfacet
  facet normal  0.000000e+00  1.000000e+00  0.000000e+00
    outer loop
      vertex  0.000000e+00  7.060000e+01  3.500000e+01
      vertex  1.519322e+01  7.060000e+01  3.600000e+01
      vertex  1.519322e+01  7.060000e+01  3.500000e+01
    endloop
  endfacet
  facet normal -1.158237e-01  9.932697e-01  0.000000e+00
    outer loop
      vertex  1.575000e+01  6.750000e+01  3.500000e+01
      vertex  1.611816e+01  6.754293e+01  3.600000e+01
      vertex  1.611816e+01  6.754293e+01  3.500000e+01
    endloop
  endfacet
  facet normal -3.412737e-01  9.399640e-01  0.000000e+00
    outer loop
      vertex  1.611816e+01  6.754293e+01  3.500000e+01
      vertex  1.611816e+01  6.754293e+01  3.600000e+01
      vertex  1.646656e+01  6.766943e+01  3.600000e+01
    endloop
  endfacet
  facet normal -3.412737e-01  9.399640e-01  0.000000e+00
    outer loop
      vertex  1.611816e+01  6.754293e+01  3.500000e+01
      vertex  1.646656e+01  6.766943e+01  3.600000e+01
      vertex  1.646656e+01  6.766943e+01  3.500000e+01
    endloop
  endfacet
  facet normal -5.484049e-01  8.362130e-01  0.000000e+00
    outer loop
      vertex  1.646656e+01  6.766943e+01  3.500000e+01
      vertex  1.646656e+01  6.766943e+01  3.600000e+01
      vertex  1.677651e+01  6.787270e+01  3.600000e+01
    endloop
  endfacet
  facet normal -5.484049e-01  8.362130e-01  0.000000e+00
    outer loop
      vertex  1.646656e+01  6.766943e+01  3.500000e+01
      vertex  1.677651e+01  6.787270e+01  3.600000e+01
      vertex  1.677651e+01  6.787270e+01  3.500000e+01
    endloop
  endfacet
  facet normal -7.261029e-01  6.875861e-01  0.000000e+00
    outer loop
      vertex  1.677651e+01  6.787270e+01  3.500000e+01
      vertex  1.677651e+01  6.787270e+01  3.600000e+01
      vertex  1.703137e+01  6.814183e+01  3.600000e+01
    endloop
  endfacet
  facet normal -7.261029e-01  6.875861e-01  0.000000e+00
    outer loop
      vertex  1.677651e+01  6.787270e+01  3.500000e+01
      vertex  1.703137e+01  6.814183e+01  3.600000e+01
      vertex  1.703137e+01  6.814183e+01  3.500000e+01
    endloop
  endfacet
  facet normal -8.648326e-01  5.020603e-01  0.000000e+00
    outer loop
      vertex  1.703137e+01  6.814183e+01  3.500000e+01
      vertex  1.703137e+01  6.814183e+01  3.600000e+01
      vertex  1.721746e+01  6.846239e+01  3.600000e+01
    endloop
  endfacet
  facet normal -8.648326e-01  5.020603e-01  0.000000e+00
    outer loop
      vertex  1.703137e+01  6.814183e+01  3.500000e+01
      vertex  1.721746e+01  6.846239e+01  3.600000e+01
      vertex  1.721746e+01  6.846239e+01  3.500000e+01
    endloop
  endfacet
  facet normal -9.571481e-01  2.895990e-01  0.000000e+00
    outer loop
      vertex  1.721746e+01  6.846239e+01  3.500000e+01
      vertex  1.721746e+01  6.846239e+01  3.600000e+01
      vertex  1.732480e+01  6.881715e+01  3.600000e+01
    endloop
  endfacet
  facet normal -9.571481e-01  2.895990e-01  0.000000e+00
    outer loop
      vertex  1.721746e+01  6.846239e+01  3.500000e+01
      vertex  1.732480e+01  6.881715e+01  3.600000e+01
      vertex  1.732480e+01  6.881715e+01  3.500000e+01
    endloop
  endfacet
  facet normal -9.981022e-01  6.157992e-02  0.000000e+00
    outer loop
      vertex  1.732480e+01  6.881715e+01  3.500000e+01
      vertex  1.732480e+01  6.881715e+01  3.600000e+01
      vertex  1.734763e+01  6.918711e+01  3.600000e+01
    endloop
  endfacet
  facet normal -9.981022e-01  6.157992e-02  0.000000e+00
    outer loop
      vertex  1.732480e+01  6.881715e+01  3.500000e+01
      vertex  1.734763e+01  6.918711e+01  3.600000e+01
      vertex  1.734763e+01  6.918711e+01  3.500000e+01
    endloop
  endfacet
  facet normal -9.854891e-01 -1.697389e-01  0.000000e+00
    outer loop
      vertex  1.734763e+01  6.918711e+01  3.500000e+01
      vertex  1.734763e+01  6.918711e+01  3.600000e+01
      vertex  1.728471e+01  6.955238e+01  3.600000e+01
    endloop
  endfacet
  facet normal -9.854891e-01 -1.697389e-01  -0.000000e+00
    outer loop
      vertex  1.734763e+01  6.918711e+01  3.500000e+01
      vertex  1.728471e+01  6.955238e+01  3.600000e+01
      vertex  1.728471e+01  6.955238e+01  3.500000e+01
    endloop
  endfacet
  facet normal -9.199920e-01 -3.919373e-01  0.000000e+00
    outer loop
      vertex  1.728471e+01  6.955238e+01  3.500000e+01
      vertex  1.728471e+01  6.955238e+01  3.600000e+01
      vertex  1.713944e+01  6.989339e+01  3.600000e+01
    endloop
  endfacet
  facet normal -9.199920e-01 -3.919373e-01  -0.000000e+00
    outer loop
      vertex  1.728471e+01  6.955238e+01  3.500000e+01
      vertex  1.713944e+01  6.989339e+01  3.600000e+01
      vertex  1.713944e+01  6.989339e+01  3.500000e+01
    endloop
  endfacet
  facet normal -8.051181e-01 -5.931146e-01  0.000000e+00
    outer loop
      vertex  1.713944e+01  6.989339e+01  3.500000e+01
      vertex  1.713944e+01  6.989339e+01  3.600000e+01
      vertex  1.691960e+01  7.019181e+01  3.600000e+01
    endloop
  endfacet
  facet normal -8.051181e-01 -5.931146e-01  -0.000000e+00
    outer loop
      vertex  1.713944e+01  6.989339e+01  3.500000e+01
      vertex  1.691960e+01  7.019181e+01  3.600000e+01
      vertex  1.691960e+01  7.019181e+01  3.500000e+01
    endloop
  endfacet
  facet normal -6.470304e-01 -7.624642e-01  0.000000e+00
    outer loop
      vertex  1.691960e+01  7.019181e+01  3.500000e+01
      vertex  1.691960e+01  7.019181e+01  3.600000e+01
      vertex  1.663699e+01  7.043163e+01  3.600000e+01
    endloop
  endfacet
  facet normal -6.470304e-01 -7.624642e-01  -0.000000e+00
    outer loop
      vertex  1.691960e+01  7.019181e+01  3.500000e+01
      vertex  1.663699e+01  7.043163e+01  3.600000e+01
      vertex  1.663699e+01  7.043163e+01  3.500000e+01
    endloop
  endfacet
  facet normal -4.542352e-01 -8.908818e-01  0.000000e+00
    outer loop
      vertex  1.663699e+01  7.043163e+01  3.500000e+01
      vertex  1.663699e+01  7.043163e+01  3.600000e+01
      vertex  1.630678e+01  7.060000e+01  3.600000e+01
    endloop
  endfacet
  facet normal -4.542352e-01 -8.908818e-01  -0.000000e+00
    outer loop
      vertex  1.663699e+01  7.043163e+01  3.500000e+01
      vertex  1.630678e+01  7.060000e+01  3.600000e+01
      vertex  1.630678e+01  7.060000e+01  3.500000e+01
    endloop
  endfacet
  facet normal -1.158237e-01  9.932697e-01  0.000000e+00
    outer loop
      vertex  1.611816e+01  6.754293e+01  3.600000e+01
      vertex  1.575000e+01  6.750000e+01  3.500000e+01
      vertex  1.575000e+01  6.750000e+01  3.600000e+01
    endloop
  endfacet
  facet normal  1.158234e-01  9.932699e-01  0.000000e+00
    outer loop
      vertex  1.575000e+01  6.750000e+01  3.600000e+01
      vertex  1.575000e+01  6.750000e+01  3.500000e+01
      vertex  1.538184e+01  6.754293e+01  3.500000e+01
    endloop
  endfacet
  facet normal  1.158234e-01  9.932699e-01  -0.000000e+00
    outer loop
      vertex  1.575000e+01  6.750000e+01  3.600000e+01
      vertex  1.538184e+01  6.754293e+01  3.500000e+01
      vertex  1.538184e+01  6.754293e+01  3.600000e+01
    endloop
  endfacet
  facet normal  3.412745e-01  9.399637e-01  0.000000e+00
    outer loop
      vertex  1.538184e+01  6.754293e+01  3.600000e+01
      vertex  1.538184e+01  6.754293e+01  3.500000e+01
      vertex  1.503344e+01  6.766943e+01  3.500000e+01
    endloop
  endfacet
  facet normal  3.412745e-01  9.399637e-01  -0.000000e+00
    outer loop
      vertex  1.538184e+01  6.754293e+01  3.600000e+01
      vertex  1.503344e+01  6.766943e+01  3.500000e+01
      vertex  1.503344e+01  6.766943e+01  3.600000e+01
    endloop
  endfacet
  facet normal  5.484060e-01  8.362121e-01  0.000000e+00
    outer loop
      vertex  1.503344e+01  6.766943e+01  3.600000e+01
      vertex  1.503344e+01  6.766943e+01  3.500000e+01
      vertex  1.472349e+01  6.787270e+01  3.500000e+01
    endloop
  endfacet
  facet normal  5.484060e-01  8.362121e-01  -0.000000e+00
    outer loop
      vertex  1.503344e+01  6.766943e+01  3.600000e+01
      vertex  1.472349e+01  6.787270e+01  3.500000e+01
      vertex  1.472349e+01  6.787270e+01  3.600000e+01
    endloop
  endfacet
  facet normal  7.261016e-01  6.875874e-01  0.000000e+00
    outer loop
      vertex  1.472349e+01  6.787270e+01  3.600000e+01
      vertex  1.472349e+01  6.787270e+01  3.500000e+01
      vertex  1.446863e+01  6.814183e+01  3.500000e+01
    endloop
  endfacet
  facet normal  7.261016e-01  6.875874e-01  -0.000000e+00
    outer loop
      vertex  1.472349e+01  6.787270e+01  3.600000e+01
      vertex  1.446863e+01  6.814183e+01  3.500000e+01
      vertex  1.446863e+01  6.814183e+01  3.600000e+01
    endloop
  endfacet
  facet normal  8.648326e-01  5.020603e-01  0.000000e+00
    outer loop
      vertex  1.446863e+01  6.814183e+01  3.600000e+01
      vertex  1.446863e+01  6.814183e+01  3.500000e+01
      vertex  1.428254e+01  6.846239e+01  3.500000e+01
    endloop
  endfacet
  facet normal  8.648326e-01  5.020603e-01  -0.000000e+00
    outer loop
      vertex  1.446863e+01  6.814183e+01  3.600000e+01
      vertex  1.428254e+01  6.846239e+01  3.500000e+01
      vertex  1.428254e+01  6.846239e+01  3.600000e+01
    endloop
  endfacet
  facet normal  9.571487e-01  2.895967e-01  0.000000e+00
    outer loop
      vertex  1.428254e+01  6.846239e+01  3.600000e+01
      vertex  1.428254e+01  6.846239e+01  3.500000e+01
      vertex  1.417520e+01  6.881715e+01  3.500000e+01
    endloop
  endfacet
  facet normal  9.571487e-01  2.895967e-01  -0.000000e+00
    outer loop
      vertex  1.428254e+01  6.846239e+01  3.600000e+01
      vertex  1.417520e+01  6.881715e+01  3.500000e+01
      vertex  1.417520e+01  6.881715e+01  3.600000e+01
    endloop
  endfacet
  facet normal  9.981022e-01  6.157992e-02  0.000000e+00
    outer loop
      vertex  1.417520e+01  6.881715e+01  3.600000e+01
      vertex  1.417520e+01  6.881715e+01  3.500000e+01
      vertex  1.415237e+01  6.918711e+01  3.500000e+01
    endloop
  endfacet
  facet normal  9.981022e-01  6.157992e-02  -0.000000e+00
    outer loop
      vertex  1.417520e+01  6.881715e+01  3.600000e+01
      vertex  1.415237e+01  6.918711e+01  3.500000e+01
      vertex  1.415237e+01  6.918711e+01  3.600000e+01
    endloop
  endfacet
  facet normal  9.854895e-01 -1.697364e-01  0.000000e+00
    outer loop
      vertex  1.415237e+01  6.918711e+01  3.600000e+01
      vertex  1.415237e+01  6.918711e+01  3.500000e+01
      vertex  1.421529e+01  6.955238e+01  3.500000e+01
    endloop
  endfacet
  facet normal  9.854895e-01 -1.697364e-01  0.000000e+00
    outer loop
      vertex  1.415237e+01  6.918711e+01  3.600000e+01
      vertex  1.421529e+01  6.955238e+01  3.500000e+01
      vertex  1.421529e+01  6.955238e+01  3.600000e+01
    endloop
  endfacet
  facet normal  9.199910e-01 -3.919394e-01  0.000000e+00
    outer loop
      vertex  1.421529e+01  6.955238e+01  3.600000e+01
      vertex  1.421529e+01  6.955238e+01  3.500000e+01
      vertex  1.436056e+01  6.989339e+01  3.500000e+01
    endloop
  endfacet
  facet normal  9.199910e-01 -3.919394e-01  0.000000e+00
    outer loop
      vertex  1.421529e+01  6.955238e+01  3.600000e+01
      vertex  1.436056e+01  6.989339e+01  3.500000e+01
      vertex  1.436056e+01  6.989339e+01  3.600000e+01
    endloop
  endfacet
  facet normal  8.051205e-01 -5.931113e-01  0.000000e+00
    outer loop
      vertex  1.436056e+01  6.989339e+01  3.600000e+01
      vertex  1.436056e+01  6.989339e+01  3.500000e+01
      vertex  1.458040e+01  7.019181e+01  3.500000e+01
    endloop
  endfacet
  facet normal  8.051205e-01 -5.931113e-01  0.000000e+00
    outer loop
      vertex  1.436056e+01  6.989339e+01  3.600000e+01
      vertex  1.458040e+01  7.019181e+01  3.500000e+01
      vertex  1.458040e+01  7.019181e+01  3.600000e+01
    endloop
  endfacet
  facet normal  6.470278e-01 -7.624663e-01  0.000000e+00
    outer loop
      vertex  1.458040e+01  7.019181e+01  3.600000e+01
      vertex  1.458040e+01  7.019181e+01  3.500000e+01
      vertex  1.486301e+01  7.043163e+01  3.500000e+01
    endloop
  endfacet
  facet normal  6.470278e-01 -7.624663e-01  0.000000e+00
    outer loop
      vertex  1.458040e+01  7.019181e+01  3.600000e+01
      vertex  1.486301e+01  7.043163e+01  3.500000e+01
      vertex  1.486301e+01  7.043163e+01  3.600000e+01
    endloop
  endfacet
  facet normal  4.542362e-01 -8.908812e-01  0.000000e+00
    outer loop
      vertex  1.486301e+01  7.043163e+01  3.600000e+01
      vertex  1.486301e+01  7.043163e+01  3.500000e+01
      vertex  1.519322e+01  7.060000e+01  3.500000e+01
    endloop
  endfacet
  facet normal  4.542362e-01 -8.908812e-01  0.000000e+00
    outer loop
      vertex  1.486301e+01  7.043163e+01  3.600000e+01
      vertex  1.519322e+01  7.060000e+01  3.500000e+01
      vertex  1.519322e+01  7.060000e+01  3.600000e+01
    endloop
  endfacet
  facet normal  0.000000e+00  1.000000e+00  0.000000e+00
    outer loop
      vertex  1.630678e+01  7.060000e+01  3.600000e+01
      vertex  2.975000e+01  7.060000e+01  3.600000e+01
      vertex  1.630678e+01  7.060000e+01  3.500000e+01
    endloop
  endfacet
  facet normal  0.000000e+00  1.000000e+00  0.000000e+00
    outer loop
      vertex  1.630678e+01  7.060000e+01  3.500000e+01
      vertex  2.975000e+01  7.060000e+01  3.600000e+01
      vertex  2.975000e+01  7.060000e+01  3.500000e+01
    endloop
  endfacet
  facet normal  1.000000e+00  0.000000e+00  0.000000e+00
    outer loop
      vertex  2.975000e+01  0.000000e+00  3.600000e+01
      vertex  2.975000e+01  0.000000e+00  3.500000e+01
      vertex  2.975000e+01  7.060000e+01  3.600000e+01
    endloop
  endfacet
  facet normal  1.000000e+00  0.000000e+00  0.000000e+00
    outer loop
      vertex  2.975000e+01  7.060000e+01  3.600000e+01
      vertex  2.975000e+01  0.000000e+00  3.500000e+01
      vertex  2.975000e+01  7.060000e+01  3.500000e+01
    endloop
  endfacet
  facet normal  0.000000e+00 -1.000000e+00  0.000000e+00
    outer loop
      vertex  2.975000e+01  0.000000e+00  3.600000e+01
      vertex  1.630678e+01  0.000000e+00  3.600000e+01
      vertex  2.975000e+01  0.000000e+00  3.500000e+01
    endloop
  endfacet
  facet normal  0.000000e+00 -1.000000e+00  0.000000e+00
    outer loop
      vertex  2.975000e+01  0.000000e+00  3.500000e+01
      vertex  1.630678e+01  0.000000e+00  3.600000e+01
      vertex  1.630678e+01  0.000000e+00  3.500000e+01
    endloop
  endfacet
  facet normal  1.158297e-01 -9.932691e-01  0.000000e+00
    outer loop
      vertex  1.575000e+01  3.100000e+00  3.500000e+01
      vertex  1.538184e+01  3.057067e+00  3.600000e+01
      vertex  1.538184e+01  3.057067e+00  3.500000e+01
    endloop
  endfacet
  facet normal  3.412733e-01 -9.399641e-01  0.000000e+00
    outer loop
      vertex  1.538184e+01  3.057067e+00  3.500000e+01
      vertex  1.538184e+01  3.057067e+00  3.600000e+01
      vertex  1.503344e+01  2.930572e+00  3.600000e+01
    endloop
  endfacet
  facet normal  3.412733e-01 -9.399641e-01  0.000000e+00
    outer loop
      vertex  1.538184e+01  3.057067e+00  3.500000e+01
      vertex  1.503344e+01  2.930572e+00  3.600000e+01
      vertex  1.503344e+01  2.930572e+00  3.500000e+01
    endloop
  endfacet
  facet normal  5.484034e-01 -8.362139e-01  0.000000e+00
    outer loop
      vertex  1.503344e+01  2.930572e+00  3.500000e+01
      vertex  1.503344e+01  2.930572e+00  3.600000e+01
      vertex  1.472349e+01  2.727304e+00  3.600000e+01
    endloop
  endfacet
  facet normal  5.484034e-01 -8.362139e-01  0.000000e+00
    outer loop
      vertex  1.503344e+01  2.930572e+00  3.500000e+01
      vertex  1.472349e+01  2.727304e+00  3.600000e+01
      vertex  1.472349e+01  2.727304e+00  3.500000e+01
    endloop
  endfacet
  facet normal  7.260998e-01 -6.875893e-01  0.000000e+00
    outer loop
      vertex  1.472349e+01  2.727304e+00  3.500000e+01
      vertex  1.472349e+01  2.727304e+00  3.600000e+01
      vertex  1.446863e+01  2.458170e+00  3.600000e+01
    endloop
  endfacet
  facet normal  7.260998e-01 -6.875893e-01  0.000000e+00
    outer loop
      vertex  1.472349e+01  2.727304e+00  3.500000e+01
      vertex  1.446863e+01  2.458170e+00  3.600000e+01
      vertex  1.446863e+01  2.458170e+00  3.500000e+01
    endloop
  endfacet
  facet normal  8.648314e-01 -5.020626e-01  0.000000e+00
    outer loop
      vertex  1.446863e+01  2.458170e+00  3.500000e+01
      vertex  1.446863e+01  2.458170e+00  3.600000e+01
      vertex  1.428254e+01  2.137616e+00  3.600000e+01
    endloop
  endfacet
  facet normal  8.648314e-01 -5.020626e-01  0.000000e+00
    outer loop
      vertex  1.446863e+01  2.458170e+00  3.500000e+01
      vertex  1.428254e+01  2.137616e+00  3.600000e+01
      vertex  1.428254e+01  2.137616e+00  3.500000e+01
    endloop
  endfacet
  facet normal  9.571501e-01 -2.895921e-01  0.000000e+00
    outer loop
      vertex  1.428254e+01  2.137616e+00  3.500000e+01
      vertex  1.428254e+01  2.137616e+00  3.600000e+01
      vertex  1.417520e+01  1.782843e+00  3.600000e+01
    endloop
  endfacet
  facet normal  9.571501e-01 -2.895921e-01  0.000000e+00
    outer loop
      vertex  1.428254e+01  2.137616e+00  3.500000e+01
      vertex  1.417520e+01  1.782843e+00  3.600000e+01
      vertex  1.417520e+01  1.782843e+00  3.500000e+01
    endloop
  endfacet
  facet normal  9.981021e-01 -6.158071e-02  0.000000e+00
    outer loop
      vertex  1.417520e+01  1.782843e+00  3.500000e+01
      vertex  1.417520e+01  1.782843e+00  3.600000e+01
      vertex  1.415237e+01  1.412891e+00  3.600000e+01
    endloop
  endfacet
  facet normal  9.981021e-01 -6.158071e-02  0.000000e+00
    outer loop
      vertex  1.417520e+01  1.782843e+00  3.500000e+01
      vertex  1.415237e+01  1.412891e+00  3.600000e+01
      vertex  1.415237e+01  1.412891e+00  3.500000e+01
    endloop
  endfacet
  facet normal  9.854898e-01  1.697342e-01  -0.000000e+00
    outer loop
      vertex  1.415237e+01  1.412891e+00  3.500000e+01
      vertex  1.415237e+01  1.412891e+00  3.600000e+01
      vertex  1.421529e+01  1.047613e+00  3.600000e+01
    endloop
  endfacet
  facet normal  9.854898e-01  1.697342e-01  0.000000e+00
    outer loop
      vertex  1.415237e+01  1.412891e+00  3.500000e+01
      vertex  1.421529e+01  1.047613e+00  3.600000e+01
      vertex  1.421529e+01  1.047613e+00  3.500000e+01
    endloop
  endfacet
  facet normal  9.199893e-01  3.919433e-01  -0.000000e+00
    outer loop
      vertex  1.421529e+01  1.047613e+00  3.500000e+01
      vertex  1.421529e+01  1.047613e+00  3.600000e+01
      vertex  1.436056e+01  7.066137e-01  3.600000e+01
    endloop
  endfacet
  facet normal  9.199893e-01  3.919433e-01  0.000000e+00
    outer loop
      vertex  1.421529e+01  1.047613e+00  3.500000e+01
      vertex  1.436056e+01  7.066137e-01  3.600000e+01
      vertex  1.436056e+01  7.066137e-01  3.500000e+01
    endloop
  endfacet
  facet normal  8.051181e-01  5.931144e-01  -0.000000e+00
    outer loop
      vertex  1.436056e+01  7.066137e-01  3.500000e+01
      vertex  1.436056e+01  7.066137e-01  3.600000e+01
      vertex  1.458040e+01  4.081924e-01  3.600000e+01
    endloop
  endfacet
  facet normal  8.051181e-01  5.931144e-01  0.000000e+00
    outer loop
      vertex  1.436056e+01  7.066137e-01  3.500000e+01
      vertex  1.458040e+01  4.081924e-01  3.600000e+01
      vertex  1.458040e+01  4.081924e-01  3.500000e+01
    endloop
  endfacet
  facet normal  6.470369e-01  7.624587e-01  -0.000000e+00
    outer loop
      vertex  1.458040e+01  4.081924e-01  3.500000e+01
      vertex  1.458040e+01  4.081924e-01  3.600000e+01
      vertex  1.486301e+01  1.683642e-01  3.600000e+01
    endloop
  endfacet
  facet normal  6.470369e-01  7.624587e-01  0.000000e+00
    outer loop
      vertex  1.458040e+01  4.081924e-01  3.500000e+01
      vertex  1.486301e+01  1.683642e-01  3.600000e+01
      vertex  1.486301e+01  1.683642e-01  3.500000e+01
    endloop
  endfacet
  facet normal  4.542335e-01  8.908826e-01  -0.000000e+00
    outer loop
      vertex  1.486301e+01  1.683642e-01  3.500000e+01
      vertex  1.486301e+01  1.683642e-01  3.600000e+01
      vertex  1.519322e+01  2.220446e-16  3.600000e+01
    endloop
  endfacet
  facet normal  4.542335e-01  8.908826e-01  0.000000e+00
    outer loop
      vertex  1.486301e+01  1.683642e-01  3.500000e+01
      vertex  1.519322e+01  2.220446e-16  3.600000e+01
      vertex  1.519322e+01  2.220446e-16  3.500000e+01
    endloop
  endfacet
  facet normal  1.158297e-01 -9.932691e-01  0.000000e+00
    outer loop
      vertex  1.538184e+01  3.057067e+00  3.600000e+01
      vertex  1.575000e+01  3.100000e+00  3.500000e+01
      vertex  1.575000e+01  3.100000e+00  3.600000e+01
    endloop
  endfacet
  facet normal -1.158300e-01 -9.932690e-01  -0.000000e+00
    outer loop
      vertex  1.575000e+01  3.100000e+00  3.600000e+01
      vertex  1.575000e+01  3.100000e+00  3.500000e+01
      vertex  1.611816e+01  3.057067e+00  3.500000e+01
    endloop
  endfacet
  facet normal -1.158300e-01 -9.932690e-01  0.000000e+00
    outer loop
      vertex  1.575000e+01  3.100000e+00  3.600000e+01
      vertex  1.611816e+01  3.057067e+00  3.500000e+01
      vertex  1.611816e+01  3.057067e+00  3.600000e+01
    endloop
  endfacet
  facet normal -3.412725e-01 -9.399644e-01  -0.000000e+00
    outer loop
      vertex  1.611816e+01  3.057067e+00  3.600000e+01
      vertex  1.611816e+01  3.057067e+00  3.500000e+01
      vertex  1.646656e+01  2.930572e+00  3.500000e+01
    endloop
  endfacet
  facet normal -3.412725e-01 -9.399644e-01  0.000000e+00
    outer loop
      vertex  1.611816e+01  3.057067e+00  3.600000e+01
      vertex  1.646656e+01  2.930572e+00  3.500000e+01
      vertex  1.646656e+01  2.930572e+00  3.600000e+01
    endloop
  endfacet
  facet normal -5.484021e-01 -8.362147e-01  -0.000000e+00
    outer loop
      vertex  1.646656e+01  2.930572e+00  3.600000e+01
      vertex  1.646656e+01  2.930572e+00  3.500000e+01
      vertex  1.677651e+01  2.727304e+00  3.500000e+01
    endloop
  endfacet
  facet normal -5.484021e-01 -8.362147e-01  0.000000e+00
    outer loop
      vertex  1.646656e+01  2.930572e+00  3.600000e+01
      vertex  1.677651e+01  2.727304e+00  3.500000e+01
      vertex  1.677651e+01  2.727304e+00  3.600000e+01
    endloop
  endfacet
  facet normal -7.261010e-01 -6.875880e-01  -0.000000e+00
    outer loop
      vertex  1.677651e+01  2.727304e+00  3.600000e+01
      vertex  1.677651e+01  2.727304e+00  3.500000e+01
      vertex  1.703137e+01  2.458170e+00  3.500000e+01
    endloop
  endfacet
  facet normal -7.261010e-01 -6.875880e-01  0.000000e+00
    outer loop
      vertex  1.677651e+01  2.727304e+00  3.600000e+01
      vertex  1.703137e+01  2.458170e+00  3.500000e+01
      vertex  1.703137e+01  2.458170e+00  3.600000e+01
    endloop
  endfacet
  facet normal -8.648314e-01 -5.020626e-01  -0.000000e+00
    outer loop
      vertex  1.703137e+01  2.458170e+00  3.600000e+01
      vertex  1.703137e+01  2.458170e+00  3.500000e+01
      vertex  1.721746e+01  2.137616e+00  3.500000e+01
    endloop
  endfacet
  facet normal -8.648314e-01 -5.020626e-01  0.000000e+00
    outer loop
      vertex  1.703137e+01  2.458170e+00  3.600000e+01
      vertex  1.721746e+01  2.137616e+00  3.500000e+01
      vertex  1.721746e+01  2.137616e+00  3.600000e+01
    endloop
  endfacet
  facet normal -9.571494e-01 -2.895945e-01  -0.000000e+00
    outer loop
      vertex  1.721746e+01  2.137616e+00  3.600000e+01
      vertex  1.721746e+01  2.137616e+00  3.500000e+01
      vertex  1.732480e+01  1.782843e+00  3.500000e+01
    endloop
  endfacet
  facet normal -9.571494e-01 -2.895945e-01  0.000000e+00
    outer loop
      vertex  1.721746e+01  2.137616e+00  3.600000e+01
      vertex  1.732480e+01  1.782843e+00  3.500000e+01
      vertex  1.732480e+01  1.782843e+00  3.600000e+01
    endloop
  endfacet
  facet normal -9.981021e-01 -6.158071e-02  -0.000000e+00
    outer loop
      vertex  1.732480e+01  1.782843e+00  3.600000e+01
      vertex  1.732480e+01  1.782843e+00  3.500000e+01
      vertex  1.734763e+01  1.412891e+00  3.500000e+01
    endloop
  endfacet
  facet normal -9.981021e-01 -6.158071e-02  0.000000e+00
    outer loop
      vertex  1.732480e+01  1.782843e+00  3.600000e+01
      vertex  1.734763e+01  1.412891e+00  3.500000e+01
      vertex  1.734763e+01  1.412891e+00  3.600000e+01
    endloop
  endfacet
  facet normal -9.854894e-01  1.697367e-01  0.000000e+00
    outer loop
      vertex  1.734763e+01  1.412891e+00  3.600000e+01
      vertex  1.734763e+01  1.412891e+00  3.500000e+01
      vertex  1.728471e+01  1.047613e+00  3.500000e+01
    endloop
  endfacet
  facet normal -9.854894e-01  1.697367e-01  0.000000e+00
    outer loop
      vertex  1.734763e+01  1.412891e+00  3.600000e+01
      vertex  1.728471e+01  1.047613e+00  3.500000e+01
      vertex  1.728471e+01  1.047613e+00  3.600000e+01
    endloop
  endfacet
  facet normal -9.199902e-01  3.919411e-01  0.000000e+00
    outer loop
      vertex  1.728471e+01  1.047613e+00  3.600000e+01
      vertex  1.728471e+01  1.047613e+00  3.500000e+01
      vertex  1.713944e+01  7.066137e-01  3.500000e+01
    endloop
  endfacet
  facet normal -9.199902e-01  3.919411e-01  0.000000e+00
    outer loop
      vertex  1.728471e+01  1.047613e+00  3.600000e+01
      vertex  1.713944e+01  7.066137e-01  3.500000e+01
      vertex  1.713944e+01  7.066137e-01  3.600000e+01
    endloop
  endfacet
  facet normal -8.051158e-01  5.931177e-01  0.000000e+00
    outer loop
      vertex  1.713944e+01  7.066137e-01  3.600000e+01
      vertex  1.713944e+01  7.066137e-01  3.500000e+01
      vertex  1.691960e+01  4.081924e-01  3.500000e+01
    endloop
  endfacet
  facet normal -8.051158e-01  5.931177e-01  0.000000e+00
    outer loop
      vertex  1.713944e+01  7.066137e-01  3.600000e+01
      vertex  1.691960e+01  4.081924e-01  3.500000e+01
      vertex  1.691960e+01  4.081924e-01  3.600000e+01
    endloop
  endfacet
  facet normal -6.470394e-01  7.624565e-01  0.000000e+00
    outer loop
      vertex  1.691960e+01  4.081924e-01  3.600000e+01
      vertex  1.691960e+01  4.081924e-01  3.500000e+01
      vertex  1.663699e+01  1.683642e-01  3.500000e+01
    endloop
  endfacet
  facet normal -6.470394e-01  7.624565e-01  0.000000e+00
    outer loop
      vertex  1.691960e+01  4.081924e-01  3.600000e+01
      vertex  1.663699e+01  1.683642e-01  3.500000e+01
      vertex  1.663699e+01  1.683642e-01  3.600000e+01
    endloop
  endfacet
  facet normal -4.542325e-01  8.908832e-01  0.000000e+00
    outer loop
      vertex  1.663699e+01  1.683642e-01  3.600000e+01
      vertex  1.663699e+01  1.683642e-01  3.500000e+01
      vertex  1.630678e+01  0.000000e+00  3.500000e+01
    endloop
  endfacet
  facet normal -4.542325e-01  8.908832e-01  0.000000e+00
    outer loop
      vertex  1.663699e+01  1.683642e-01  3.600000e+01
      vertex  1.630678e+01  0.000000e+00  3.500000e+01
      vertex  1.630678e+01  0.000000e+00  3.600000e+01
    endloop
  endfacet
  facet normal  1.461471e-17 -1.000000e+00  0.000000e+00
    outer loop
      vertex  1.519322e+01  2.220446e-16  3.600000e+01
      vertex  0.000000e+00  0.000000e+00  3.600000e+01
      vertex  1.519322e+01  2.220446e-16  3.500000e+01
    endloop
  endfacet
  facet normal  1.461471e-17 -1.000000e+00  0.000000e+00
    outer loop
      vertex  1.519322e+01  2.220446e-16  3.500000e+01
      vertex  0.000000e+00  0.000000e+00  3.600000e+01
      vertex  0.000000e+00  0.000000e+00  3.500000e+01
    endloop
  endfacet
  facet normal -1.000000e+00  0.000000e+00  0.000000e+00
    outer loop
      vertex  0.000000e+00  7.060000e+01  3.600000e+01
      vertex  0.000000e+00  7.060000e+01  3.500000e+01
      vertex  0.000000e+00  0.000000e+00  3.600000e+01
    endloop
  endfacet
  facet normal -1.000000e+00  0.000000e+00  0.000000e+00
    outer loop
      vertex  0.000000e+00  0.000000e+00  3.600000e+01
      vertex  0.000000e+00  7.060000e+01  3.500000e+01
      vertex  0.000000e+00  0.000000e+00  3.500000e+01
    endloop
  endfacet
endsolid CATIA STL
